<svg width="48" height="48" viewBox="0 0 48 48" fill="none" xmlns="http://www.w3.org/2000/svg">
<path d="M24.8272 26.202L27.6116 28.7302C27.7631 28.5088 27.9262 28.2875 28.1126 28.101C28.3107 27.9146 28.5204 27.7399 28.7417 27.6001L26.2136 24.804C25.5029 24.9205 24.9437 25.4797 24.8272 26.202Z" fill="#272727"/>
<path d="M15.7981 13.4097C15.1689 12.7224 14.1087 12.6874 13.433 13.3165C13.0835 13.6311 12.8854 14.0855 12.8971 14.5515C12.9087 15.0292 13.1068 15.4719 13.468 15.7864L23.3476 24.8039C23.6854 24.1631 24.1981 23.6505 24.8388 23.3127L15.7981 13.4097Z" fill="#272727"/>
<path d="M24 0C10.765 0 0 10.765 0 24C0 37.235 10.765 48 24 48C37.235 48 48 37.235 48 24C48 10.765 37.235 0 24 0ZM35.9301 36.967C35.3592 36.9087 30.3262 36.4893 28.1126 34.2757C27.2971 33.4602 26.8427 32.3534 26.8427 31.2C26.8427 31.0252 26.8544 30.8388 26.8777 30.6641L12.1981 17.2078C11.4524 16.5553 10.9981 15.635 10.9631 14.6447C10.8932 12.6757 12.4427 11.0097 14.4117 10.9398C14.4583 10.9398 14.4932 10.9398 14.5398 10.9398H14.668C15.6466 10.9864 16.567 11.4291 17.1961 12.1748L30.6524 26.866H31.1884C32.3417 26.866 33.4485 27.3204 34.2641 28.1359C36.4777 30.3495 36.8971 35.3825 36.9553 35.9534L37.0485 37.0602L35.9301 36.967Z" fill="#272727"/>
</svg>
