<svg width="13" height="13" viewBox="0 0 13 13" fill="none" xmlns="http://www.w3.org/2000/svg">
<path d="M7.94445 1.44444C7.54557 1.44444 7.22222 1.12109 7.22222 0.722222C7.22222 0.32335 7.54557 0 7.94445 0H12.2778C12.4693 0 12.653 0.0760912 12.7885 0.211534C12.9239 0.346977 13 0.530678 13 0.722222L13 5.05556C13 5.45443 12.6766 5.77778 12.2778 5.77778C11.8789 5.77778 11.5556 5.45443 11.5556 5.05555L11.5556 2.46582L4.84402 9.17735C4.56198 9.4594 4.10469 9.4594 3.82265 9.17735C3.5406 8.89531 3.5406 8.43802 3.82265 8.15598L10.5342 1.44444H7.94445ZM0 2.88889C0 2.09114 0.6467 1.44444 1.44444 1.44444H5.05556C5.45443 1.44444 5.77778 1.76779 5.77778 2.16667C5.77778 2.56554 5.45443 2.88889 5.05556 2.88889H1.44444V11.5556H10.1111V7.94444C10.1111 7.54557 10.4345 7.22222 10.8333 7.22222C11.2322 7.22222 11.5556 7.54557 11.5556 7.94444V11.5556C11.5556 12.3533 10.9089 13 10.1111 13H1.44444C0.6467 13 0 12.3533 0 11.5556V2.88889Z" fill="#272727"/>
</svg>
